# xmcd CD database file
#
# Track frame offsets:
#	150
#	12928
#	27694
#	43843
#	60669
#	77892
#	94850
#	112780
#	128545
#	142086
#	159225
#	175136
#	194620
#	211857
#	235208
#
# Disc length: 3336 seconds
#
# Revision: 0
# Processed by: cddbd v1.5.1PL0 Copyright (c) Steve Scherf et al.
# Submitted via: CDex 1.50Beta7
#
DISCID=c90d060f
DTITLE=Белый Острог - Двое из Сибири
DYEAR=2005
DGENRE=Jazz
TTITLE0=Тоска по Родине
TTITLE1=Байкал
TTITLE2=Восточная 29 улица
TTITLE3=Океанский бриз
TTITLE4=Новая русская
TTITLE5=За Зу За
TTITLE6=Мандолинка
TTITLE7=Западное побережье
TTITLE8=Оставьте сообщение
TTITLE9=Дождь
TTITLE10=Дорога на Эльдорадо
TTITLE11=Байкальские флейты
TTITLE12=Белая русская
TTITLE13=Mr. Jimmy
TTITLE14=Дружба народов
EXTD=YEAR: 2005
EXTT0=
EXTT1=
EXTT2=
EXTT3=
EXTT4=
EXTT5=
EXTT6=
EXTT7=
EXTT8=
EXTT9=
EXTT10=
EXTT11=
EXTT12=
EXTT13=
EXTT14=
PLAYORDER=
